
<svg width="88" height="27" viewBox="0 0 88 27" fill="none" xmlns="http://www.w3.org/2000/svg">
<g clip-path="url(#clip0_2215_34949)">
<path d="M30.988 13.4182L25.475 3.86827L23.2405 0H7.74645L2.10666 9.77043L0 13.4182L5.6409 23.1886L7.74755 26.8364H23.2405L28.7535 17.2865L30.9869 13.4182H30.988ZM28.3721 16.1841L23.2405 7.29558H12.9784L14.5757 4.5297H24.8389L29.9705 13.4182L28.3732 16.1841H28.3721ZM18.5189 18.6578H12.4691L9.44412 13.4182L12.4691 8.17859H18.5189L21.5439 13.4182L18.5189 18.6578ZM12.4691 0.881907H22.7323L24.3296 3.64779H14.0653L11.9587 7.29558L11.8319 7.51605L8.93372 12.5352L7.33636 9.76933L12.4691 0.881907ZM8.25685 0.881907H11.4516L6.31886 9.77043L11.4505 18.6589H8.25575L3.12416 9.77043L8.25575 0.881907H8.25685ZM2.61596 10.6523L7.74755 19.5409H18.0107L16.4134 22.3067H6.1502L1.0186 13.4182L2.61596 10.6523ZM8.25685 25.9545L6.6595 23.1886H16.9227L19.0293 19.5409L22.0543 14.3012L23.6516 17.0671L18.52 25.9556H8.25575L8.25685 25.9545ZM22.7323 25.9545H19.5375L24.5413 17.2865L24.668 17.066L22.5614 13.4182L19.5364 8.17859H22.7312L27.8628 17.0671L22.7312 25.9556L22.7323 25.9545Z" fill="white"/>
<path d="M40.8632 7.7684H46.8061V2.57617H38.1866V7.7695H39.6042C38.7752 8.91488 37.5814 9.97537 36.3037 10.6974L36.1626 10.7768L36.3004 10.8628C36.4977 10.9863 36.8362 11.296 36.9817 11.4548L37.0368 11.5143L37.1051 11.4713C37.8713 10.9841 38.6121 10.3855 39.2504 9.74056H41.0065C40.1345 11.1053 38.8436 12.3345 37.4425 13.1315L37.3135 13.2054L37.4336 13.2935C37.6288 13.4369 37.9529 13.7499 38.0918 13.9131L38.1469 13.9781L38.2185 13.9307C39.8269 12.8724 41.2766 11.3478 42.2037 9.74056H43.8969C43.2553 11.3093 42.2654 12.6575 41.0969 13.5493L40.98 13.6386L41.1079 13.7102C41.3041 13.8205 41.6414 14.1038 41.7881 14.2504L41.8509 14.3133L41.9181 14.2559C43.2024 13.1723 44.3015 11.5716 45.0169 9.74167H46.525C46.3321 11.856 46.1193 12.9154 45.8316 13.1789C45.7434 13.277 45.6618 13.2924 45.427 13.2924C45.1922 13.2924 44.5584 13.2924 43.9157 13.2274L43.7261 13.2076L43.8231 13.3718C43.9399 13.5713 44.0347 13.8756 44.048 14.0961L44.0535 14.1821L44.1383 14.1876C44.8439 14.2295 45.4568 14.2405 45.7743 14.214C46.1855 14.1997 46.4545 14.0873 46.6981 13.8304C47.1401 13.4027 47.3749 12.2507 47.6263 9.26544C47.6527 9.14858 47.6649 8.88732 47.6671 8.85755L47.6715 8.75724H40.1455C40.4068 8.43975 40.6526 8.10352 40.8643 7.77281L40.8632 7.7684ZM45.7269 5.61214V6.82145H39.2261V5.61214H45.7269V5.61214ZM45.7269 3.50879V4.70487H39.2261V3.50879H45.7269V3.50879Z" fill="white"/>
<path d="M57.9843 13.0775V11.3809H61.0137V10.4605H57.9843V9.47602H60.8417V7.55787H61.8206V6.63738H60.8417V4.86475H57.9843V4.10521H61.4634V3.17149H57.9843V1.99414H56.9712V3.17149H53.6773V4.10521H56.9712V4.86475H54.2461V5.77201H56.9712V6.63738H53.5053V7.52811L53.448 7.54685C53.028 7.68685 52.5947 7.83126 52.1769 7.96355V5.67831H53.6585V4.67845H52.1769V2.00737H51.1771V4.67955H49.4838V5.67941H51.1771V8.28986C50.4914 8.50592 49.8829 8.69553 49.3824 8.83664L49.2876 8.8631L49.6106 9.91147L51.1782 9.38012V13.0687C51.1782 13.1999 51.1572 13.2109 51.0283 13.2109C50.8861 13.223 50.3701 13.2241 49.7704 13.1977L49.6018 13.19L49.6811 13.3388C49.7914 13.5482 49.9093 13.9043 49.949 14.106L49.9645 14.1832H50.0438C50.8287 14.1832 51.3678 14.1722 51.6974 14.0289C52.0965 13.8459 52.1769 13.5251 52.1769 13.0676V9.0494L53.7511 8.51585L53.5814 7.55567H56.9723V8.56656H54.2472V9.47382H56.9723V12.8262C56.1323 12.5142 55.558 11.9255 55.1721 10.9841C55.2835 10.5486 55.3706 10.1198 55.4301 9.70863L55.4444 9.61162L54.4457 9.48043L54.4324 9.57524C54.1678 11.4261 53.5417 12.7953 52.5727 13.643L52.4812 13.7235L52.5804 13.7941C52.7634 13.9241 53.0996 14.1832 53.2264 14.3232L53.2937 14.3971L53.3653 14.3265C53.9419 13.7632 54.4137 13.0477 54.7687 12.1989C55.7443 13.7731 57.2281 14.1027 59.144 14.1027H61.5516L61.5659 14.0245C61.6034 13.8227 61.7302 13.4667 61.8437 13.2914L61.9397 13.1426H59.1837C58.756 13.1426 58.3525 13.1194 57.9843 13.0742V13.0775ZM57.9843 6.63738V5.77201H59.8154V6.63738H57.9843ZM57.9843 8.56876V7.55787H59.8154V8.56876H57.9843Z" fill="white"/>
<path d="M74.52 2.7749H67.8451V3.80122H74.52V2.7749Z" fill="white"/>
<path d="M63.1931 5.67729L63.2482 5.75666L63.3276 5.70154C64.5512 4.8494 65.8796 3.56843 66.7097 2.43849L66.7835 2.33817L65.7627 1.93359L65.7186 1.99643C65.0627 2.93566 63.7828 4.14277 62.676 4.86814L62.5812 4.93098L62.6584 5.01476C62.8083 5.17681 63.0718 5.50532 63.192 5.67839L63.1931 5.67729Z" fill="white"/>
<path d="M66.2863 4.75L66.2455 4.81725C65.3438 6.29885 63.9041 7.83888 62.4886 8.83653L62.3916 8.90488L62.4787 8.98646C62.6606 9.15512 62.9847 9.50568 63.1137 9.68647L63.1732 9.76915L63.2526 9.70521C63.7531 9.30504 64.2524 8.85307 64.7099 8.38676V14.2503H65.7759V7.21823C66.3525 6.52704 66.8463 5.85569 67.2432 5.22402L67.3071 5.12261L66.2874 4.75H66.2863Z" fill="white"/>
<path d="M67.2763 7.43799H71.7873V12.9367C71.7873 13.0954 71.7652 13.1329 71.548 13.145C71.3177 13.1572 70.4611 13.1594 69.4524 13.1318L69.2782 13.1274L69.3664 13.2773C69.5053 13.5143 69.6376 13.8417 69.6718 14.0391L69.6861 14.1184H69.7666C71.0542 14.1184 71.763 14.1184 72.2315 13.9939C72.6934 13.8351 72.8654 13.5529 72.8654 12.9499V7.43799H74.8894V6.39844H67.2752V7.43799H67.2763Z" fill="white"/>
<path d="M88 7.86102V6.76855H76.1537V7.86102H80.2745C79.4135 9.57963 78.3343 11.1715 77.9595 11.6224C77.5835 12.1195 77.2749 12.5054 77.0092 12.5649L76.8912 12.5913L76.9431 12.7005C77.0676 12.9628 77.2264 13.4446 77.2804 13.6618L77.3079 13.772L77.4127 13.7268C77.8239 13.5493 78.4599 13.492 83.4096 13.051C84.1438 12.986 84.9717 12.9121 85.9087 12.8273C86.1987 13.3057 86.471 13.7786 86.6947 14.1997L86.7432 14.2901L87.7144 13.7014L87.6726 13.621C86.9825 12.2827 85.5692 10.2686 84.5682 8.95017L84.5186 8.88513L83.5507 9.38451L83.6191 9.47601C84.1394 10.1661 84.7237 11.0028 85.2727 11.8472L78.7675 12.3587C79.7641 11.1263 80.7948 9.53885 81.6899 7.85991H87.9989L88 7.86102Z" fill="white"/>
<path d="M86.6374 3.05127H77.5814V4.1305H86.6374V3.05127Z" fill="white"/>
<path d="M38.4732 20.2952H41.238V19.4596H38.4732V17.7002H41.615V16.8657H37.4645V23.0931H41.6613V22.2575H38.4732V20.2952Z" fill="white"/>
<path d="M47.3287 22.5463C47.3121 22.4019 47.3044 22.2498 47.3044 22.0933V19.9337C47.3044 19.42 47.1368 19.0187 46.805 18.7431C46.4787 18.4708 46.0455 18.333 45.5163 18.333C44.9872 18.333 44.5374 18.4774 44.1968 18.7618C43.8484 19.0518 43.682 19.3803 43.6996 19.7363L43.7349 19.8532H44.6796V19.7562C44.6796 19.5974 44.7491 19.4641 44.8902 19.3483C45.0368 19.2292 45.2308 19.1686 45.47 19.1686C45.7357 19.1686 45.9419 19.237 46.083 19.3715C46.2252 19.507 46.2935 19.6889 46.2935 19.926V20.2732H45.5031C44.8913 20.2732 44.3985 20.4011 44.0369 20.6535C43.6643 20.9137 43.4758 21.2786 43.4758 21.7372C43.4758 22.1958 43.6092 22.5375 43.8716 22.7944C44.134 23.0501 44.5154 23.1802 45.0059 23.1802C45.3047 23.1802 45.5869 23.1019 45.8449 22.9487C46.0234 22.8429 46.18 22.7183 46.3123 22.575C46.3156 22.6003 46.3189 22.6268 46.3222 22.6522C46.3376 22.7569 46.3586 22.8759 46.3872 23.0159L46.4027 23.0931H47.4532L47.4146 22.9685C47.3728 22.8307 47.343 22.6885 47.3276 22.5463H47.3287ZM44.748 21.2422C44.9266 21.0923 45.1713 21.0173 45.4756 21.0173H46.2957V21.6302C46.2285 21.7989 46.0885 21.9521 45.8757 22.0877C45.6552 22.2288 45.4028 22.2994 45.1272 22.2994C44.91 22.2994 44.7469 22.2498 44.6422 22.1517C44.5374 22.0547 44.4867 21.9235 44.4867 21.7515C44.4867 21.5564 44.5727 21.3899 44.748 21.2422Z" fill="white"/>
<path d="M52.8185 20.832C52.5319 20.6159 52.0942 20.444 51.5166 20.3194C51.0635 20.2246 50.8761 20.1287 50.8001 20.0658C50.6986 19.9821 50.649 19.8696 50.649 19.7219C50.649 19.5742 50.7074 19.4419 50.8287 19.3339C50.9511 19.2236 51.1462 19.1685 51.4108 19.1685C51.6577 19.1685 51.8495 19.2368 51.9972 19.3757C52.1427 19.5135 52.2144 19.6646 52.2144 19.8343V19.9313H53.1602L53.19 19.8398L53.1944 19.8134C53.2088 19.4 53.05 19.0461 52.7204 18.7595C52.3952 18.4773 51.9553 18.334 51.4119 18.334C50.8684 18.334 50.466 18.4707 50.1397 18.7408C49.809 19.0153 49.6403 19.3537 49.6403 19.7461C49.6403 20.1386 49.7925 20.4329 50.0923 20.6534C50.3767 20.864 50.8034 21.0315 51.3579 21.1517C51.7216 21.2333 51.9697 21.3281 52.0931 21.4339C52.2078 21.532 52.264 21.6522 52.264 21.8043C52.264 21.963 52.1968 22.0887 52.0579 22.1879C51.9113 22.2927 51.7007 22.3456 51.4328 22.3456C51.1826 22.3456 50.9621 22.2838 50.7769 22.1615C50.6005 22.0457 50.509 21.8627 50.4969 21.6048L50.4925 21.5133H49.5522L49.5213 21.6037L49.5169 21.6301C49.4992 22.0457 49.6679 22.4128 50.0174 22.7215C50.3624 23.0257 50.8386 23.1812 51.4328 23.1812C51.9719 23.1812 52.4161 23.05 52.7535 22.792C53.0985 22.5286 53.2738 22.1769 53.2738 21.7492C53.2738 21.3678 53.1217 21.0602 52.8207 20.8331L52.8185 20.832Z" fill="white"/>
<path d="M57.0881 21.5959L57.0142 21.3104L56.0452 18.4155H54.9241L56.6262 22.9033L56.4454 23.3377C56.3737 23.5174 56.2844 23.6827 56.1786 23.8315C56.086 23.9605 55.9724 24.0234 55.8302 24.0234C55.8115 24.0234 55.7597 24.0211 55.6197 24.0112C55.429 23.998 55.3783 23.9936 55.3672 24.0873L55.2768 24.8149L55.3595 24.8358C55.4179 24.8501 55.4973 24.8656 55.6053 24.881C55.7112 24.8964 55.8016 24.9053 55.8721 24.9053C56.2569 24.9053 56.5688 24.7818 56.7981 24.5393C57.0175 24.3067 57.1884 24.0311 57.3052 23.7191L59.2388 18.4166H58.1232L57.0881 21.597V21.5959Z" fill="white"/>
<path d="M63.5083 19.5366C62.9957 19.4076 62.622 19.2577 62.3982 19.0912C62.1877 18.9336 62.0852 18.744 62.0852 18.5114C62.0852 18.2424 62.18 18.0319 62.3762 17.8654C62.5746 17.6978 62.8679 17.6129 63.2482 17.6129C63.6572 17.6129 63.9735 17.7144 64.1874 17.9139C64.4024 18.1156 64.5071 18.3725 64.5071 18.701V18.798H65.4518L65.4827 18.7076L65.4882 18.6801C65.5026 18.1752 65.3019 17.7265 64.8918 17.3462C64.484 16.9692 63.9317 16.7773 63.2493 16.7773C62.6154 16.7773 62.0907 16.9438 61.6894 17.2723C61.2826 17.6063 61.0754 18.0274 61.0754 18.5268C61.0754 19.0262 61.2683 19.4043 61.6475 19.7185C62.0157 20.0228 62.5316 20.2565 63.1809 20.4108C63.6902 20.5332 64.0474 20.6831 64.2414 20.8562C64.4288 21.0237 64.5203 21.2266 64.5203 21.4746C64.5203 21.7414 64.4156 21.9464 64.1995 22.1007C63.9769 22.2606 63.6671 22.3422 63.2779 22.3422C62.8888 22.3422 62.5438 22.2463 62.277 22.0577C62.0168 21.8737 61.8911 21.6102 61.8911 21.2541V21.1571H60.9464L60.9155 21.2475L60.91 21.2762C60.8957 21.8549 61.136 22.3234 61.6244 22.6696C62.1017 23.0069 62.6584 23.1789 63.2779 23.1789C63.9372 23.1789 64.4806 23.0234 64.894 22.7159C65.3162 22.4028 65.5301 21.9817 65.5301 21.4658C65.5301 20.9862 65.3526 20.5795 65.0021 20.2554C64.6603 19.939 64.1576 19.6964 63.5094 19.5366H63.5083Z" fill="white"/>
<path d="M69.6541 22.264C69.6145 22.2783 69.5693 22.2915 69.5185 22.3015C69.4678 22.3114 69.4215 22.3158 69.3819 22.3158C69.2639 22.3158 69.1724 22.2827 69.1029 22.2144C69.0357 22.1482 69.0015 22.0215 69.0015 21.8396V19.2126H69.8515V18.4144H69.0015V17.333H67.9917V18.4144H67.2785V19.2126H67.9917V21.8396C67.9917 22.2915 68.0998 22.6322 68.3136 22.8505C68.5275 23.0687 68.8174 23.1801 69.1746 23.1801C69.3014 23.1801 69.4293 23.1624 69.5538 23.1294C69.6861 23.093 69.7853 23.0478 69.857 22.9883L69.9011 22.9519L69.7611 22.2232L69.6541 22.2629V22.264Z" fill="white"/>
<path d="M75.7217 22.5463C75.7051 22.4019 75.6974 22.2498 75.6974 22.0933V19.9337C75.6974 19.42 75.5298 19.0187 75.198 18.7431C74.8717 18.4708 74.4385 18.333 73.9093 18.333C73.3802 18.333 72.9304 18.4774 72.5898 18.7618C72.2425 19.0518 72.075 19.3792 72.0937 19.7363L72.129 19.8532H73.0748V19.7562C73.0748 19.5974 73.1443 19.4641 73.2865 19.3483C73.432 19.2292 73.6271 19.1686 73.8663 19.1686C74.132 19.1686 74.3382 19.237 74.4793 19.3715C74.6215 19.507 74.6898 19.6889 74.6898 19.926V20.2732H73.8994C73.2876 20.2732 72.7948 20.4011 72.4332 20.6535C72.0606 20.9137 71.8721 21.2786 71.8721 21.7372C71.8721 22.1958 72.0055 22.5375 72.2679 22.7944C72.5303 23.0501 72.9117 23.1802 73.4022 23.1802C73.6999 23.1802 73.9821 23.1019 74.2412 22.9487C74.4197 22.8429 74.5752 22.7183 74.7086 22.575C74.7119 22.6003 74.7152 22.6268 74.7185 22.6522C74.7339 22.7602 74.756 22.8826 74.7835 23.0159L74.799 23.0931H75.8495L75.811 22.9685C75.7691 22.8319 75.7393 22.6896 75.7239 22.5474L75.7217 22.5463ZM73.141 21.2422C73.3196 21.0923 73.5643 21.0173 73.8686 21.0173H74.6876V21.6302C74.6204 21.7989 74.4793 21.9521 74.2676 22.0877C74.0471 22.2288 73.7947 22.2994 73.5191 22.2994C73.3019 22.2994 73.1388 22.2498 73.034 22.1517C72.9293 22.0547 72.8786 21.9235 72.8786 21.7515C72.8786 21.5564 72.9646 21.3899 73.1399 21.2422H73.141Z" fill="white"/>
<path d="M81.7992 20.1538L81.8289 20.0623L81.8333 20.0347C81.8455 19.5574 81.6724 19.1495 81.3196 18.8221C80.9691 18.4969 80.5149 18.3315 79.967 18.3315C79.2901 18.3315 78.7621 18.5586 78.3983 19.0073C78.0389 19.4494 77.8559 20.0083 77.8559 20.6664V20.8406C77.8559 21.5042 78.0378 22.0642 78.395 22.5052C78.7577 22.9527 79.2868 23.1787 79.9659 23.1787C80.462 23.1787 80.9029 23.0189 81.2777 22.7047C81.6581 22.385 81.8433 22.0113 81.8278 21.5957L81.7936 21.4777H80.893V21.5748C80.893 21.7897 80.8037 21.9661 80.6196 22.116C80.43 22.2704 80.2161 22.3453 79.9659 22.3453C79.5679 22.3453 79.2934 22.2108 79.1281 21.9352C78.9561 21.6464 78.8679 21.2782 78.8679 20.8406V20.6664C78.8679 20.2387 78.9561 19.8749 79.1303 19.5839C79.2967 19.3049 79.5701 19.1694 79.9659 19.1694C80.2371 19.1694 80.4553 19.2542 80.6317 19.4295C80.8081 19.6048 80.893 19.8109 80.893 20.059V20.156H81.797L81.7992 20.1538Z" fill="white"/>
<path d="M86.1414 20.5487L87.7498 18.4156H86.5273L85.3003 20.1805H84.9244V16.4346H83.9157V23.093H84.9244V21.0161H85.3091L86.7632 23.093H87.9626L86.1414 20.5487Z" fill="white"/>
</g>
<defs>
<clipPath id="clip0_2215_34949">
<rect width="88" height="26.8364" fill="white"/>
</clipPath>
</defs>
</svg>
