<?xml version="1.0" encoding="UTF-8"?><svg xmlns="http://www.w3.org/2000/svg" viewBox="0 0 952.76 243.44"><g id="a"/><g id="b"><g id="c"><g><g><path d="M382.76,116.66h71.76V54.43h-103.67v62.23h17.43c-10.06,14.06-24.68,27.1-40.35,35.96l-1.28,.72,1.25,.78c2.42,1.51,6.53,5.28,8.3,7.21l.5,.54,.62-.39c9.29-5.91,18.27-13.16,25.98-20.98h21.9c-10.57,16.72-26.35,31.81-43.5,41.57l-1.17,.67,1.09,.8c2.38,1.74,6.33,5.55,8.01,7.54l.5,.59,.65-.43c19.47-12.81,37.01-31.28,48.19-50.74h21.08c-7.77,19.19-19.86,35.7-34.12,46.59l-1.06,.81,1.16,.65c2.43,1.36,6.46,4.75,8.29,6.58l.57,.57,.61-.52c15.54-13.11,28.83-32.51,37.48-54.67h18.76c-2.35,25.87-4.95,38.84-8.49,42.06-1.15,1.28-2.18,1.47-5.11,1.47s-10.52,0-18.31-.79l-1.72-.18,.88,1.49c1.46,2.49,2.6,6.14,2.76,8.89l.05,.78,.78,.05c8.51,.51,15.91,.63,19.76,.32,4.89-.17,8.08-1.5,10.98-4.57,5.3-5.12,8.11-19.02,11.14-55.05,.33-1.4,.48-4.76,.49-4.9l.04-.92h-91.35c3.33-4,6.47-8.29,9.16-12.49Zm59.29-26.08v15.21h-79.21v-15.21h79.21Zm0-25.44v15.05h-79.21v-15.05h79.21Z"/><path d="M536.41,114.15l-.96,.32c-5.28,1.76-10.72,3.57-15.97,5.24v-28.33h17.92v-11.51h-17.92V47.55h-11.51v32.32h-20.48v11.51h20.48v32.08c-8.39,2.64-15.83,4.96-21.92,6.68l-.86,.24,3.73,12.12,19.06-6.46v45.02c0,1.69-.32,2.01-2.08,2.01-1.73,.14-7.99,.17-15.25-.16l-1.53-.07,.72,1.35c1.35,2.55,2.78,6.9,3.28,9.36l.14,.7h.72c9.46,0,15.95-.13,19.89-1.84,4.1-1.88,5.63-4.96,5.63-11.36v-48.81l19-6.44-2.07-11.66Z"/><path d="M589.72,181.42v-21.08h36.64v-10.55h-36.64v-12.49h34.56v-23.2h11.84v-10.55h-11.84v-21.44h-34.56v-9.77h42.08v-10.71h-42.08v-14.24h-11.67v14.24h-39.84v10.71h39.84v9.77h-32.96v10.39h32.96v11.05h-41.92v10.55h41.92v12.81h-32.96v10.39h32.96v41.26c-10.48-3.77-17.61-11.01-22.37-22.68,1.35-5.28,2.41-10.49,3.15-15.49l.13-.88-11.5-1.51-.12,.86c-3.21,22.46-10.81,39.08-22.59,49.39l-.83,.73,.9,.64c2.21,1.58,6.31,4.73,7.86,6.44l.61,.67,.65-.63c7.06-6.91,12.82-15.7,17.14-26.16,11.73,19.35,29.7,23.37,52.97,23.37h28.89l.13-.71c.46-2.46,2.01-6.81,3.4-8.97l.87-1.35h-32.8c-5.3,0-10.27-.29-14.81-.85Zm0-77.87v-11.05h22.73v11.05h-22.73Zm0,23.36v-12.81h22.73v12.81h-22.73Z"/><path d="M653.24,91.48l.5,.72,.72-.5c14.78-10.3,30.81-25.76,40.85-39.4l.67-.91-11.78-4.67-.4,.57c-7.95,11.39-23.47,26.03-36.88,34.81l-.86,.57,.7,.76c1.82,1.97,5.03,5.96,6.48,8.06Z"/><path d="M702.69,112.66h54.56v66.81c0,2.08-.39,2.66-3.17,2.81-2.8,.15-13.17,.17-25.37-.16l-1.58-.04,.8,1.36c1.45,2.46,3.25,6.56,3.73,9.31l.13,.72h.73c15.55,0,24.11,0,29.73-1.49,5.45-1.87,7.47-5.22,7.47-12.35V112.66h24.48v-11.99h-91.51v11.99Z"/><rect x="709.57" y="56.83" width="80.15" height="11.83"/><path d="M690.18,81.41c-10.93,17.96-28.37,36.62-45.52,48.7l-.88,.62,.79,.74c2.22,2.06,6.15,6.31,7.72,8.51l.54,.75,.72-.58c6.21-4.97,12.44-10.62,18.1-16.43v71.35h12.31V110.18c6.99-8.38,12.98-16.51,17.79-24.17l.57-.92-11.77-4.3-.37,.61Z"/><rect x="827.33" y="60.19" width="108.95" height="12.47"/><path d="M952.76,117.78v-12.63h-142.71v12.63h50.03c-10.47,20.97-23.68,40.47-28.25,45.96-4.59,6.07-8.36,10.76-11.66,11.51l-1.07,.24,.47,.99c1.52,3.19,3.44,9.05,4.1,11.68l.25,1,.95-.41c5.02-2.17,12.7-2.86,72.54-8.2,8.94-.8,19.05-1.7,30.49-2.73,3.56,5.85,6.88,11.64,9.61,16.77l.44,.82,11.25-6.82-.38-.73c-8.35-16.17-25.43-40.51-37.52-56.45l-.44-.59-11.18,5.78,.62,.83c6.37,8.45,13.55,18.74,20.29,29.12l-79.85,6.28c12.2-15.01,24.86-34.46,35.83-55.05h76.19Z"/></g><path d="M281.1,121.72l-50.01-86.63h0L210.82,0H70.27L19.11,88.63h0L0,121.72l51.17,88.63h0l19.11,33.09H210.82l50.01-86.63h0l20.26-35.09Zm-23.73,25.09l-46.55-80.63H117.73l14.49-25.09h93.1l46.55,80.63-14.49,25.09Zm-89.38,22.44h-54.88l-27.44-47.53,27.44-47.53h54.88l27.44,47.53-27.44,47.53ZM113.11,8h93.1l14.49,25.09H127.59l-19.11,33.09h0l-1.15,2h0l-26.29,45.53-14.49-25.09L113.11,8Zm-38.21,0h28.98L57.32,88.63l46.55,80.63h-28.98L28.34,88.63,74.89,8ZM23.73,96.63l46.55,80.63h93.1l-14.49,25.09H55.79L9.24,121.72l14.49-25.09Zm51.17,138.81l-14.49-25.09h93.1l19.11-33.09h0l27.44-47.53,14.49,25.09-46.55,80.63H74.89Zm131.31,0h-28.98l45.39-78.63h0l1.15-2-19.11-33.09h0l-27.44-47.53h28.98l46.55,80.63-46.55,80.63Z"/></g></g></g></svg>